<svg width="457" height="398" viewBox="0 0 457 398" fill="none" xmlns="http://www.w3.org/2000/svg">
<path d="M328.924 324C308.687 324 292 340.332 292 360.924C292 381.161 308.332 397.848 328.924 397.848C349.161 397.848 365.848 381.516 365.848 360.924C365.493 340.687 349.161 324 328.924 324Z" fill="white"/>
<path d="M177.924 324C157.687 324 141 340.332 141 360.924C141 381.161 157.332 397.848 177.924 397.848C198.161 397.848 214.848 381.516 214.848 360.924C214.493 340.687 198.161 324 177.924 324Z" fill="white"/>
<path d="M439.296 74.91C438.272 74.91 436.736 74.398 435.2 74.398L367.104 264.862L154.112 262.302L107.52 40.094C104.448 17.566 84.992 0.669998 61.952 0.669998H20.48C9.216 0.669998 0 9.886 0 21.15C0 32.414 9.216 41.63 20.48 41.63H61.952C64.512 41.63 66.56 43.678 67.072 46.238L98.816 262.302C102.912 289.438 126.464 309.918 154.112 309.918H367.104C393.728 309.918 416.768 290.974 422.4 264.862L455.68 98.462C457.728 87.71 450.56 76.958 439.296 74.91Z" fill="white"/>
</svg>
