<svg width="355" height="69" viewBox="0 0 355 69" fill="none" xmlns="http://www.w3.org/2000/svg">
<path d="M80.7266 19.3906C83.8359 19.3906 86.9062 19.8516 89.9375 20.7734L90.8984 21.0547L88.9766 26.4922L88.0859 26.2344C85.2578 25.4531 82.6797 25.0625 80.3516 25.0625C78.0547 25.0625 76.0859 25.4375 74.4453 26.1875C72.8203 26.9375 72.0078 27.8984 72.0078 29.0703C72.0078 29.8359 72.3672 30.5078 73.0859 31.0859C73.8203 31.6641 74.7656 32.1562 75.9219 32.5625C77.0781 32.9531 78.3516 33.3438 79.7422 33.7344C81.1484 34.125 82.5547 34.5781 83.9609 35.0938C85.3672 35.6094 86.6484 36.2031 87.8047 36.875C88.9609 37.5469 89.8984 38.4453 90.6172 39.5703C91.3516 40.6797 91.7188 41.9609 91.7188 43.4141C91.7188 44.3516 91.5547 45.2812 91.2266 46.2031C90.9141 47.1094 90.375 48.0078 89.6094 48.8984C88.8594 49.7891 87.9219 50.5703 86.7969 51.2422C85.6875 51.8984 84.2656 52.4375 82.5312 52.8594C80.8125 53.2656 78.8828 53.4688 76.7422 53.4688C74.6016 53.4688 72.6719 53.2734 70.9531 52.8828C69.2344 52.4766 67.4141 51.8984 65.4922 51.1484L64.625 50.8203L66.6172 45.1484L67.5312 45.5C71.4844 46.9062 74.7422 47.6094 77.3047 47.6094C79.7109 47.6094 81.6562 47.2422 83.1406 46.5078C84.6406 45.7734 85.3906 44.8047 85.3906 43.6016C85.3906 42.9297 85.1641 42.3281 84.7109 41.7969C84.2578 41.2656 83.6484 40.8203 82.8828 40.4609C82.1172 40.0859 81.2344 39.7422 80.2344 39.4297C79.25 39.1172 78.2109 38.8125 77.1172 38.5156C76.0234 38.2188 74.9297 37.8984 73.8359 37.5547C72.7422 37.2109 71.6953 36.7969 70.6953 36.3125C69.7109 35.8281 68.8359 35.2812 68.0703 34.6719C67.3047 34.0625 66.6953 33.3047 66.2422 32.3984C65.7891 31.4766 65.5625 30.4531 65.5625 29.3281C65.5625 26.5156 66.9375 24.1562 69.6875 22.25C72.4531 20.3438 76.1328 19.3906 80.7266 19.3906ZM111.078 34.7656C109.281 34.7656 107.25 35.1953 104.984 36.0547V53H99.2188V17.5859H104.984V31.0391C107.797 29.9609 110.414 29.4219 112.836 29.4219C114.055 29.4219 115.148 29.5625 116.117 29.8438C117.086 30.1094 117.883 30.4453 118.508 30.8516C119.133 31.2578 119.672 31.7812 120.125 32.4219C120.578 33.0469 120.922 33.6484 121.156 34.2266C121.391 34.7891 121.57 35.4531 121.695 36.2188C121.836 36.9844 121.914 37.6172 121.93 38.1172C121.961 38.6016 121.977 39.1719 121.977 39.8281V53H116.258V39.4766C116.258 36.3359 114.531 34.7656 111.078 34.7656ZM142.484 29.3984C146.359 29.3984 149.477 30.4219 151.836 32.4688C154.211 34.5 155.398 37.3438 155.398 41C155.398 44.8438 154.188 47.8828 151.766 50.1172C149.359 52.3516 146.117 53.4688 142.039 53.4688C138.164 53.4688 135.062 52.4219 132.734 50.3281C130.422 48.2188 129.266 45.3281 129.266 41.6562C129.266 37.8906 130.445 34.9062 132.805 32.7031C135.18 30.5 138.406 29.3984 142.484 29.3984ZM142.109 34.6016C140.906 34.6016 139.773 34.8281 138.711 35.2812C137.648 35.7344 136.75 36.4688 136.016 37.4844C135.297 38.5 134.938 39.6953 134.938 41.0703C134.938 43.1016 135.641 44.8125 137.047 46.2031C138.453 47.5781 140.281 48.2656 142.531 48.2656C144.578 48.2656 146.289 47.6641 147.664 46.4609C149.039 45.2578 149.727 43.6641 149.727 41.6797C149.727 40.5391 149.5 39.5078 149.047 38.5859C148.594 37.6484 148 36.8984 147.266 36.3359C146.531 35.7734 145.719 35.3438 144.828 35.0469C143.938 34.75 143.031 34.6016 142.109 34.6016ZM174.852 29.3984C176.023 29.3984 177.156 29.5156 178.25 29.75C179.344 29.9844 180.422 30.3906 181.484 30.9688C182.547 31.5312 183.469 32.25 184.25 33.125C185.031 33.9844 185.664 35.1094 186.148 36.5C186.633 37.875 186.875 39.4375 186.875 41.1875C186.875 45.0156 185.719 48.0234 183.406 50.2109C181.094 52.3828 177.977 53.4688 174.055 53.4688C172.227 53.4688 170.438 53.2031 168.688 52.6719V65.4453H162.688V29.8438H166.953L167.492 30.9453C169.883 29.9141 172.336 29.3984 174.852 29.3984ZM173.328 34.5078C171.781 34.5078 170.234 34.7812 168.688 35.3281V47.8203C170.312 48.2891 171.883 48.5234 173.398 48.5234C174.102 48.5234 174.781 48.4688 175.438 48.3594C176.094 48.25 176.781 48.0469 177.5 47.75C178.219 47.4375 178.844 47.0391 179.375 46.5547C179.906 46.0703 180.344 45.4219 180.688 44.6094C181.031 43.7812 181.203 42.8359 181.203 41.7734C181.203 40.6016 181.023 39.5703 180.664 38.6797C180.32 37.7734 179.883 37.0703 179.352 36.5703C178.82 36.0547 178.188 35.6328 177.453 35.3047C176.719 34.9766 176.023 34.7656 175.367 34.6719C174.711 34.5625 174.031 34.5078 173.328 34.5078ZM212.562 19.3438C215.953 19.3438 218.969 20.0078 221.609 21.3359C224.25 22.6641 226.328 24.6016 227.844 27.1484C229.359 29.6797 230.117 32.625 230.117 35.9844C230.117 39.3906 229.375 42.4141 227.891 45.0547C226.406 47.6797 224.32 49.7188 221.633 51.1719C218.945 52.625 215.859 53.3516 212.375 53.3516C210.078 53.3516 207.898 53 205.836 52.2969C203.773 51.5781 201.922 50.5391 200.281 49.1797C198.656 47.8047 197.359 46.0234 196.391 43.8359C195.438 41.6484 194.961 39.1797 194.961 36.4297C194.961 33.0078 195.711 30 197.211 27.4062C198.711 24.7969 200.789 22.8047 203.445 21.4297C206.102 20.0391 209.141 19.3438 212.562 19.3438ZM215.633 25.1797C214.555 24.8984 213.453 24.7578 212.328 24.7578C211.203 24.7578 210.109 24.8984 209.047 25.1797C207.984 25.4453 206.961 25.875 205.977 26.4688C205.008 27.0469 204.156 27.7656 203.422 28.625C202.688 29.4844 202.102 30.5469 201.664 31.8125C201.227 33.0625 201.008 34.4453 201.008 35.9609C201.008 39.5703 202.125 42.4688 204.359 44.6562C206.594 46.8438 209.383 47.9375 212.727 47.9375C214.117 47.9375 215.461 47.7109 216.758 47.2578C218.07 46.8047 219.281 46.1328 220.391 45.2422C221.5 44.3516 222.391 43.1406 223.062 41.6094C223.734 40.0781 224.07 38.3359 224.07 36.3828C224.07 34.7891 223.836 33.3359 223.367 32.0234C222.898 30.6953 222.273 29.5938 221.492 28.7188C220.727 27.8438 219.828 27.1016 218.797 26.4922C217.781 25.8828 216.727 25.4453 215.633 25.1797ZM237.5 29.8438H241.531L242.328 31.4375C245.547 30.0625 248.539 29.375 251.305 29.375C252.805 29.375 254.102 29.5781 255.195 29.9844C256.289 30.3906 257.148 30.8984 257.773 31.5078C258.398 32.1172 258.891 32.8906 259.25 33.8281C259.625 34.75 259.867 35.6328 259.977 36.4766C260.086 37.3203 260.141 38.2734 260.141 39.3359V53H254.375V39.4062C254.375 38.9688 254.352 38.5938 254.305 38.2812C254.273 37.9531 254.164 37.5547 253.977 37.0859C253.789 36.6016 253.531 36.2109 253.203 35.9141C252.875 35.6016 252.375 35.3359 251.703 35.1172C251.047 34.8828 250.266 34.7656 249.359 34.7656C247.531 34.7656 245.5 35.1953 243.266 36.0547V53H237.5V29.8438ZM269.047 17.5859H274.812V53H269.047V17.5859ZM283.367 19.6953H289.836V26.0469H283.367V19.6953ZM283.719 29.8438H289.484V53H283.719V29.8438ZM297.922 29.8438H301.953L302.75 31.4375C305.969 30.0625 308.961 29.375 311.727 29.375C313.227 29.375 314.523 29.5781 315.617 29.9844C316.711 30.3906 317.57 30.8984 318.195 31.5078C318.82 32.1172 319.312 32.8906 319.672 33.8281C320.047 34.75 320.289 35.6328 320.398 36.4766C320.508 37.3203 320.562 38.2734 320.562 39.3359V53H314.797V39.4062C314.797 38.9688 314.773 38.5938 314.727 38.2812C314.695 37.9531 314.586 37.5547 314.398 37.0859C314.211 36.6016 313.953 36.2109 313.625 35.9141C313.297 35.6016 312.797 35.3359 312.125 35.1172C311.469 34.8828 310.688 34.7656 309.781 34.7656C307.953 34.7656 305.922 35.1953 303.688 36.0547V53H297.922V29.8438ZM341.234 29.3984C342.578 29.3984 343.781 29.5469 344.844 29.8438C345.922 30.125 346.805 30.4922 347.492 30.9453C348.195 31.3828 348.797 31.9609 349.297 32.6797C349.812 33.3828 350.203 34.0625 350.469 34.7188C350.734 35.3594 350.938 36.1328 351.078 37.0391C351.234 37.9453 351.328 38.7109 351.359 39.3359C351.391 39.9609 351.406 40.7031 351.406 41.5625V44.1875H333.992C334.32 45.3438 335.25 46.3516 336.781 47.2109C338.312 48.0547 340.328 48.4766 342.828 48.4766C344.594 48.4766 346.391 48.2109 348.219 47.6797L349.18 47.3984L350.328 51.8516L349.484 52.1328C346.875 53.0234 344.094 53.4688 341.141 53.4688C339.078 53.4688 337.25 53.2422 335.656 52.7891C334.062 52.3359 332.781 51.75 331.812 51.0312C330.859 50.3125 330.07 49.4453 329.445 48.4297C328.836 47.4141 328.414 46.3984 328.18 45.3828C327.945 44.3672 327.828 43.2812 327.828 42.125C327.828 40.4062 328.07 38.8359 328.555 37.4141C329.055 35.9766 329.727 34.7734 330.57 33.8047C331.43 32.8203 332.43 31.9922 333.57 31.3203C334.727 30.6484 335.945 30.1641 337.227 29.8672C338.508 29.5547 339.844 29.3984 341.234 29.3984ZM340.273 34.6484C338.477 34.6484 337.039 35.1016 335.961 36.0078C334.883 36.8984 334.242 38.0156 334.039 39.3594H345.734C345.609 37.6719 345.078 36.4688 344.141 35.75C343.203 35.0156 341.914 34.6484 340.273 34.6484Z" fill="white"/>
<path d="M44.25 14.5H38.75C38.75 6.91 32.59 0.75 25 0.75C17.41 0.75 11.25 6.91 11.25 14.5H5.75C2.725 14.5 0.25 16.975 0.25 20V53C0.25 56.025 2.725 58.5 5.75 58.5H44.25C47.275 58.5 49.75 56.025 49.75 53V20C49.75 16.975 47.275 14.5 44.25 14.5ZM25 6.25C29.565 6.25 33.25 9.935 33.25 14.5H16.75C16.75 9.935 20.435 6.25 25 6.25ZM44.25 53H5.75V20H44.25V53ZM25 31C20.435 31 16.75 27.315 16.75 22.75H11.25C11.25 30.34 17.41 36.5 25 36.5C32.59 36.5 38.75 30.34 38.75 22.75H33.25C33.25 27.315 29.565 31 25 31Z" fill="white"/>
</svg>
