<svg xmlns="http://www.w3.org/2000/svg" width="344.36" height="119.508" viewBox="0 0 344.36 119.508">
  <g id="logo_dark" transform="translate(13 12)">
    <text id="it" transform="translate(-13 71.39)" fill="rgba(0,0,0,0.8)" font-size="72" font-family="BalooThambi2-Regular, 'Baloo Thambi 2'" letter-spacing="0.05em" opacity="0.75"><tspan x="0" y="0">it</tspan></text>
    <path id="Path_14" data-name="Path 14" d="M78.36,0h39a5,5,0,0,1,5,5V71a29,29,0,0,1-29,29h-39a5,5,0,0,1-5-5V29a29,29,0,0,1,29-29Z" fill="#3a6073"/>
    <text id="m" transform="translate(55.36 66)" fill="#fff" font-size="72" font-family="BalooThambi2-Regular, 'Baloo Thambi 2'" letter-spacing="0.04em"><tspan x="0" y="0">m</tspan></text>
    <text id="atters" transform="translate(128.36 66)" fill="rgba(0,0,0,0.8)" font-size="72" font-family="BalooThambi2-Regular, 'Baloo Thambi 2'" letter-spacing="0.05em" opacity="0.75"><tspan x="0" y="0">atters</tspan></text>
    <path id="Path_15" data-name="Path 15" d="M49.23,81.92c8-11,34.89-5.19,60.13,13.08" transform="translate(165.756 164.121) rotate(175.008)" fill="none" stroke="#fff" stroke-miterlimit="10" stroke-width="2"/>
    <path id="Path_16" data-name="Path 16" d="M142,92.06c14.17-24.25,69.38-18.31,123.43,13.29" fill="none" stroke="#3a6073" stroke-miterlimit="10" stroke-width="5"/>
  </g>
</svg>
